<svg width="24" height="24" viewBox="0 0 24 24" fill="none" xmlns="http://www.w3.org/2000/svg">
<rect width="24" height="24" rx="4" fill="black"/>
<path d="M14.6672 10.3425C15.6189 11.0252 16.7849 11.427 18.0441 11.427V8.99515C17.8058 8.9952 17.5681 8.97026 17.3349 8.92069V10.8349C16.0758 10.8349 14.91 10.4331 13.958 9.75044V14.713C13.958 17.1956 11.9527 19.208 9.47911 19.208C8.55616 19.208 7.69831 18.9279 6.9857 18.4477C7.79903 19.2823 8.93328 19.8 10.1881 19.8C12.6619 19.8 14.6673 17.7876 14.6673 15.305V10.3425H14.6672ZM15.5421 7.88908C15.0557 7.35581 14.7363 6.66665 14.6672 5.90476V5.59198H13.9952C14.1643 6.56034 14.7413 7.38766 15.5421 7.88908ZM8.55024 16.5427C8.27849 16.1851 8.13164 15.7476 8.1323 15.2979C8.1323 14.1625 9.04953 13.2418 10.1811 13.2418C10.392 13.2418 10.6017 13.2742 10.8027 13.3382V10.852C10.5678 10.8197 10.3307 10.806 10.0938 10.811V12.7461C9.89266 12.6821 9.68292 12.6496 9.47198 12.6498C8.34036 12.6498 7.42317 13.5704 7.42317 14.7059C7.42317 15.5089 7.88164 16.204 8.55024 16.5427Z" fill="#FF004F"/>
<path d="M13.9581 9.75039C14.91 10.4331 16.0758 10.8348 17.335 10.8348V8.92064C16.6321 8.77039 16.0099 8.40179 15.5421 7.88909C14.7413 7.38761 14.1643 6.56029 13.9952 5.59198H12.2299V15.3049C12.2259 16.4372 11.3103 17.3541 10.1811 17.3541C9.51565 17.3541 8.92449 17.0358 8.5501 16.5427C7.88155 16.204 7.42309 15.5088 7.42309 14.706C7.42309 13.5705 8.34027 12.6499 9.47189 12.6499C9.6887 12.6499 9.89768 12.6838 10.0937 12.7462V10.8111C7.66358 10.8615 5.70917 12.8542 5.70917 15.3049C5.70917 16.5283 6.19586 17.6374 6.98577 18.4477C7.69838 18.9279 8.55623 19.208 9.47918 19.208C11.9528 19.208 13.9581 17.1955 13.9581 14.713V9.75039H13.9581Z" fill="white"/>
<path d="M17.3349 8.92065V8.40307C16.7011 8.40403 16.0798 8.2259 15.542 7.88904C16.018 8.41206 16.6449 8.77269 17.3349 8.92065ZM13.9951 5.59199C13.979 5.49945 13.9666 5.40629 13.958 5.31278V5H11.5206V14.713C11.5168 15.8452 10.6011 16.762 9.47185 16.762C9.1403 16.762 8.82727 16.6831 8.55006 16.5427C8.92445 17.0358 9.5156 17.354 10.181 17.354C11.3101 17.354 12.2259 16.4373 12.2299 15.3049V5.59199H13.9951ZM10.0938 10.8111V10.2601C9.89009 10.2322 9.68476 10.2181 9.47918 10.2183C7.00535 10.2182 5 12.2307 5 14.713C5 16.2693 5.78814 17.6409 6.98577 18.4477C6.19586 17.6374 5.70917 16.5282 5.70917 15.3049C5.70917 12.8542 7.66353 10.8615 10.0938 10.8111Z" fill="#00F2EA"/>
</svg>
